<mxfile host="app.diagrams.net" modified="2024-03-17T12:18:14.624Z" agent="Mozilla/5.0 (Windows NT 10.0; Win64; x64) AppleWebKit/537.36 (KHTML, like Gecko) Chrome/122.0.0.0 Safari/537.36" etag="WCpXsOW14dYKqdHoNgOS" version="24.0.1" type="device">
  <diagram name="Страница — 1" id="7TrQRgj0X93dxlgfwdW_">
    <mxGraphModel dx="683" dy="751" grid="1" gridSize="10" guides="1" tooltips="1" connect="1" arrows="1" fold="1" page="0" pageScale="1" pageWidth="827" pageHeight="1169" math="0" shadow="0">
      <root>
        <mxCell id="0" />
        <mxCell id="1" parent="0" />
        <mxCell id="4iZOH7k5CTV7Lrkq2rq5-4" style="edgeStyle=orthogonalEdgeStyle;rounded=0;orthogonalLoop=1;jettySize=auto;html=1;entryX=0.5;entryY=0;entryDx=0;entryDy=0;" parent="1" source="4iZOH7k5CTV7Lrkq2rq5-1" target="4iZOH7k5CTV7Lrkq2rq5-14" edge="1">
          <mxGeometry relative="1" as="geometry">
            <mxPoint x="30" y="55" as="targetPoint" />
          </mxGeometry>
        </mxCell>
        <mxCell id="4iZOH7k5CTV7Lrkq2rq5-15" value="&amp;nbsp;(\&amp;nbsp;" style="edgeLabel;html=1;align=center;verticalAlign=middle;resizable=0;points=[];" parent="4iZOH7k5CTV7Lrkq2rq5-4" vertex="1" connectable="0">
          <mxGeometry x="-0.1261" y="-1" relative="1" as="geometry">
            <mxPoint as="offset" />
          </mxGeometry>
        </mxCell>
        <mxCell id="4iZOH7k5CTV7Lrkq2rq5-1" value="&amp;lt;LF&amp;gt;" style="ellipse;whiteSpace=wrap;html=1;" parent="1" vertex="1">
          <mxGeometry x="70" y="-50" width="50" height="50" as="geometry" />
        </mxCell>
        <mxCell id="4iZOH7k5CTV7Lrkq2rq5-17" style="edgeStyle=orthogonalEdgeStyle;rounded=0;orthogonalLoop=1;jettySize=auto;html=1;entryX=0;entryY=0.5;entryDx=0;entryDy=0;" parent="1" source="4iZOH7k5CTV7Lrkq2rq5-14" target="4iZOH7k5CTV7Lrkq2rq5-16" edge="1">
          <mxGeometry relative="1" as="geometry" />
        </mxCell>
        <mxCell id="4iZOH7k5CTV7Lrkq2rq5-18" value="&amp;nbsp;letter&amp;nbsp;" style="edgeLabel;html=1;align=center;verticalAlign=middle;resizable=0;points=[];" parent="4iZOH7k5CTV7Lrkq2rq5-17" vertex="1" connectable="0">
          <mxGeometry x="-0.1429" y="1" relative="1" as="geometry">
            <mxPoint as="offset" />
          </mxGeometry>
        </mxCell>
        <mxCell id="4iZOH7k5CTV7Lrkq2rq5-20" style="edgeStyle=orthogonalEdgeStyle;rounded=0;orthogonalLoop=1;jettySize=auto;html=1;entryX=0.282;entryY=0.072;entryDx=0;entryDy=0;entryPerimeter=0;" parent="1" source="4iZOH7k5CTV7Lrkq2rq5-14" target="4iZOH7k5CTV7Lrkq2rq5-19" edge="1">
          <mxGeometry relative="1" as="geometry">
            <Array as="points">
              <mxPoint x="86" y="100" />
              <mxPoint x="85" y="100" />
            </Array>
          </mxGeometry>
        </mxCell>
        <mxCell id="4iZOH7k5CTV7Lrkq2rq5-21" value="&amp;nbsp;-&amp;nbsp;" style="edgeLabel;html=1;align=center;verticalAlign=middle;resizable=0;points=[];" parent="4iZOH7k5CTV7Lrkq2rq5-20" vertex="1" connectable="0">
          <mxGeometry x="0.3946" y="-2" relative="1" as="geometry">
            <mxPoint x="2" y="-11" as="offset" />
          </mxGeometry>
        </mxCell>
        <mxCell id="4iZOH7k5CTV7Lrkq2rq5-14" value="ARGFUNC" style="ellipse;whiteSpace=wrap;html=1;" parent="1" vertex="1">
          <mxGeometry x="50" y="30" width="90" height="50" as="geometry" />
        </mxCell>
        <mxCell id="4iZOH7k5CTV7Lrkq2rq5-24" style="edgeStyle=orthogonalEdgeStyle;rounded=0;orthogonalLoop=1;jettySize=auto;html=1;exitX=0;exitY=0;exitDx=0;exitDy=0;entryX=0.926;entryY=0.164;entryDx=0;entryDy=0;entryPerimeter=0;" parent="1" source="4iZOH7k5CTV7Lrkq2rq5-16" target="4iZOH7k5CTV7Lrkq2rq5-14" edge="1">
          <mxGeometry relative="1" as="geometry">
            <Array as="points">
              <mxPoint x="133" y="37" />
            </Array>
          </mxGeometry>
        </mxCell>
        <mxCell id="4iZOH7k5CTV7Lrkq2rq5-25" value="&quot; &quot;" style="edgeLabel;html=1;align=center;verticalAlign=middle;resizable=0;points=[];" parent="4iZOH7k5CTV7Lrkq2rq5-24" vertex="1" connectable="0">
          <mxGeometry x="-0.0045" relative="1" as="geometry">
            <mxPoint as="offset" />
          </mxGeometry>
        </mxCell>
        <mxCell id="4iZOH7k5CTV7Lrkq2rq5-26" style="edgeStyle=orthogonalEdgeStyle;rounded=0;orthogonalLoop=1;jettySize=auto;html=1;entryX=0.5;entryY=0;entryDx=0;entryDy=0;" parent="1" source="4iZOH7k5CTV7Lrkq2rq5-16" target="4iZOH7k5CTV7Lrkq2rq5-19" edge="1">
          <mxGeometry relative="1" as="geometry">
            <Array as="points">
              <mxPoint x="255" y="90" />
              <mxPoint x="105" y="90" />
            </Array>
          </mxGeometry>
        </mxCell>
        <mxCell id="4iZOH7k5CTV7Lrkq2rq5-27" value="&amp;nbsp;-&amp;nbsp;" style="edgeLabel;html=1;align=center;verticalAlign=middle;resizable=0;points=[];" parent="4iZOH7k5CTV7Lrkq2rq5-26" vertex="1" connectable="0">
          <mxGeometry x="0.4261" relative="1" as="geometry">
            <mxPoint x="23" as="offset" />
          </mxGeometry>
        </mxCell>
        <mxCell id="4iZOH7k5CTV7Lrkq2rq5-16" value="ARGFUNCREM" style="ellipse;whiteSpace=wrap;html=1;" parent="1" vertex="1">
          <mxGeometry x="210" y="30" width="90" height="50" as="geometry" />
        </mxCell>
        <mxCell id="4iZOH7k5CTV7Lrkq2rq5-19" value="ARROW" style="ellipse;whiteSpace=wrap;html=1;" parent="1" vertex="1">
          <mxGeometry x="60" y="110" width="90" height="40" as="geometry" />
        </mxCell>
        <mxCell id="4iZOH7k5CTV7Lrkq2rq5-22" style="edgeStyle=orthogonalEdgeStyle;rounded=0;orthogonalLoop=1;jettySize=auto;html=1;exitX=0.781;exitY=0.104;exitDx=0;exitDy=0;entryX=0.21;entryY=0.094;entryDx=0;entryDy=0;entryPerimeter=0;exitPerimeter=0;" parent="1" source="4iZOH7k5CTV7Lrkq2rq5-16" target="4iZOH7k5CTV7Lrkq2rq5-16" edge="1">
          <mxGeometry relative="1" as="geometry">
            <mxPoint x="255" y="30" as="targetPoint" />
            <Array as="points">
              <mxPoint x="280" y="10" />
              <mxPoint x="229" y="10" />
            </Array>
          </mxGeometry>
        </mxCell>
        <mxCell id="4iZOH7k5CTV7Lrkq2rq5-23" value="letter |&amp;nbsp;_ | digit" style="edgeLabel;html=1;align=center;verticalAlign=middle;resizable=0;points=[];" parent="4iZOH7k5CTV7Lrkq2rq5-22" vertex="1" connectable="0">
          <mxGeometry x="-0.0217" y="-2" relative="1" as="geometry">
            <mxPoint as="offset" />
          </mxGeometry>
        </mxCell>
        <mxCell id="4iZOH7k5CTV7Lrkq2rq5-36" style="edgeStyle=orthogonalEdgeStyle;rounded=0;orthogonalLoop=1;jettySize=auto;html=1;entryX=0;entryY=0.5;entryDx=0;entryDy=0;" parent="1" source="4iZOH7k5CTV7Lrkq2rq5-28" target="4iZOH7k5CTV7Lrkq2rq5-35" edge="1">
          <mxGeometry relative="1" as="geometry" />
        </mxCell>
        <mxCell id="4iZOH7k5CTV7Lrkq2rq5-37" value="&amp;nbsp;letter&amp;nbsp;" style="edgeLabel;html=1;align=center;verticalAlign=middle;resizable=0;points=[];" parent="4iZOH7k5CTV7Lrkq2rq5-36" vertex="1" connectable="0">
          <mxGeometry x="-0.3286" y="2" relative="1" as="geometry">
            <mxPoint x="6" as="offset" />
          </mxGeometry>
        </mxCell>
        <mxCell id="4iZOH7k5CTV7Lrkq2rq5-28" value="ARG1" style="ellipse;whiteSpace=wrap;html=1;" parent="1" vertex="1">
          <mxGeometry x="190" y="105" width="50" height="50" as="geometry" />
        </mxCell>
        <mxCell id="4iZOH7k5CTV7Lrkq2rq5-46" style="edgeStyle=orthogonalEdgeStyle;rounded=0;orthogonalLoop=1;jettySize=auto;html=1;entryX=0;entryY=0.5;entryDx=0;entryDy=0;" parent="1" source="4iZOH7k5CTV7Lrkq2rq5-31" target="4iZOH7k5CTV7Lrkq2rq5-45" edge="1">
          <mxGeometry relative="1" as="geometry" />
        </mxCell>
        <mxCell id="4iZOH7k5CTV7Lrkq2rq5-47" value="letter" style="edgeLabel;html=1;align=center;verticalAlign=middle;resizable=0;points=[];" parent="4iZOH7k5CTV7Lrkq2rq5-46" vertex="1" connectable="0">
          <mxGeometry x="-0.1548" y="2" relative="1" as="geometry">
            <mxPoint x="-1" y="1" as="offset" />
          </mxGeometry>
        </mxCell>
        <mxCell id="4iZOH7k5CTV7Lrkq2rq5-31" value="OPERATION" style="ellipse;whiteSpace=wrap;html=1;" parent="1" vertex="1">
          <mxGeometry x="60" y="217" width="90" height="40" as="geometry" />
        </mxCell>
        <mxCell id="4iZOH7k5CTV7Lrkq2rq5-33" style="edgeStyle=orthogonalEdgeStyle;rounded=0;orthogonalLoop=1;jettySize=auto;html=1;entryX=-0.029;entryY=0.505;entryDx=0;entryDy=0;entryPerimeter=0;" parent="1" source="4iZOH7k5CTV7Lrkq2rq5-19" target="4iZOH7k5CTV7Lrkq2rq5-28" edge="1">
          <mxGeometry relative="1" as="geometry" />
        </mxCell>
        <mxCell id="4iZOH7k5CTV7Lrkq2rq5-34" value="&amp;nbsp;&amp;gt;&amp;nbsp;" style="edgeLabel;html=1;align=center;verticalAlign=middle;resizable=0;points=[];" parent="4iZOH7k5CTV7Lrkq2rq5-33" vertex="1" connectable="0">
          <mxGeometry x="-0.1203" y="-2" relative="1" as="geometry">
            <mxPoint x="1" as="offset" />
          </mxGeometry>
        </mxCell>
        <mxCell id="4iZOH7k5CTV7Lrkq2rq5-43" style="edgeStyle=orthogonalEdgeStyle;rounded=0;orthogonalLoop=1;jettySize=auto;html=1;entryX=0.5;entryY=0;entryDx=0;entryDy=0;" parent="1" target="4iZOH7k5CTV7Lrkq2rq5-31" edge="1">
          <mxGeometry relative="1" as="geometry">
            <mxPoint x="345" y="150" as="sourcePoint" />
            <mxPoint x="105" y="175" as="targetPoint" />
            <Array as="points">
              <mxPoint x="345" y="165" />
              <mxPoint x="105" y="165" />
            </Array>
          </mxGeometry>
        </mxCell>
        <mxCell id="4iZOH7k5CTV7Lrkq2rq5-44" value="&amp;nbsp;+ | - | * | /&amp;nbsp;" style="edgeLabel;html=1;align=center;verticalAlign=middle;resizable=0;points=[];" parent="4iZOH7k5CTV7Lrkq2rq5-43" vertex="1" connectable="0">
          <mxGeometry x="-0.0563" y="2" relative="1" as="geometry">
            <mxPoint as="offset" />
          </mxGeometry>
        </mxCell>
        <mxCell id="4iZOH7k5CTV7Lrkq2rq5-35" value="ARG1REM" style="ellipse;whiteSpace=wrap;html=1;" parent="1" vertex="1">
          <mxGeometry x="300" y="105" width="90" height="50" as="geometry" />
        </mxCell>
        <mxCell id="4iZOH7k5CTV7Lrkq2rq5-40" style="edgeStyle=orthogonalEdgeStyle;rounded=0;orthogonalLoop=1;jettySize=auto;html=1;entryX=0.935;entryY=0.261;entryDx=0;entryDy=0;entryPerimeter=0;exitX=0.103;exitY=0.186;exitDx=0;exitDy=0;exitPerimeter=0;" parent="1" source="4iZOH7k5CTV7Lrkq2rq5-35" target="4iZOH7k5CTV7Lrkq2rq5-35" edge="1">
          <mxGeometry relative="1" as="geometry">
            <mxPoint x="310" y="110" as="sourcePoint" />
            <Array as="points">
              <mxPoint x="309" y="85" />
              <mxPoint x="384" y="85" />
            </Array>
          </mxGeometry>
        </mxCell>
        <mxCell id="4iZOH7k5CTV7Lrkq2rq5-41" value="&amp;nbsp;letter |&amp;nbsp; | digit&amp;nbsp;" style="edgeLabel;html=1;align=center;verticalAlign=middle;resizable=0;points=[];" parent="4iZOH7k5CTV7Lrkq2rq5-40" vertex="1" connectable="0">
          <mxGeometry x="-0.11" y="-1" relative="1" as="geometry">
            <mxPoint x="5" as="offset" />
          </mxGeometry>
        </mxCell>
        <mxCell id="4iZOH7k5CTV7Lrkq2rq5-49" style="edgeStyle=orthogonalEdgeStyle;rounded=0;orthogonalLoop=1;jettySize=auto;html=1;entryX=0;entryY=0.5;entryDx=0;entryDy=0;" parent="1" source="4iZOH7k5CTV7Lrkq2rq5-45" target="4iZOH7k5CTV7Lrkq2rq5-48" edge="1">
          <mxGeometry relative="1" as="geometry" />
        </mxCell>
        <mxCell id="4iZOH7k5CTV7Lrkq2rq5-52" value="&amp;nbsp;)&amp;nbsp;" style="edgeLabel;html=1;align=center;verticalAlign=middle;resizable=0;points=[];" parent="4iZOH7k5CTV7Lrkq2rq5-49" vertex="1" connectable="0">
          <mxGeometry x="-0.1949" y="-4" relative="1" as="geometry">
            <mxPoint y="-3" as="offset" />
          </mxGeometry>
        </mxCell>
        <mxCell id="4iZOH7k5CTV7Lrkq2rq5-45" value="ARG2" style="ellipse;whiteSpace=wrap;html=1;" parent="1" vertex="1">
          <mxGeometry x="190" y="212" width="50" height="50" as="geometry" />
        </mxCell>
        <mxCell id="4iZOH7k5CTV7Lrkq2rq5-54" style="edgeStyle=orthogonalEdgeStyle;rounded=0;orthogonalLoop=1;jettySize=auto;html=1;entryX=0.5;entryY=0;entryDx=0;entryDy=0;" parent="1" target="4iZOH7k5CTV7Lrkq2rq5-53" edge="1">
          <mxGeometry relative="1" as="geometry">
            <mxPoint x="347.5" y="262" as="sourcePoint" />
            <mxPoint x="102.5" y="294" as="targetPoint" />
            <Array as="points">
              <mxPoint x="348" y="274" />
              <mxPoint x="103" y="274" />
            </Array>
          </mxGeometry>
        </mxCell>
        <mxCell id="4iZOH7k5CTV7Lrkq2rq5-55" value="&amp;nbsp;+ | - | λ" style="edgeLabel;html=1;align=center;verticalAlign=middle;resizable=0;points=[];" parent="4iZOH7k5CTV7Lrkq2rq5-54" vertex="1" connectable="0">
          <mxGeometry x="-0.0373" relative="1" as="geometry">
            <mxPoint as="offset" />
          </mxGeometry>
        </mxCell>
        <mxCell id="4iZOH7k5CTV7Lrkq2rq5-48" value="CLOSE" style="ellipse;whiteSpace=wrap;html=1;" parent="1" vertex="1">
          <mxGeometry x="305" y="216" width="85" height="42" as="geometry" />
        </mxCell>
        <mxCell id="4iZOH7k5CTV7Lrkq2rq5-50" style="edgeStyle=orthogonalEdgeStyle;rounded=0;orthogonalLoop=1;jettySize=auto;html=1;exitX=1;exitY=0;exitDx=0;exitDy=0;entryX=0;entryY=0;entryDx=0;entryDy=0;" parent="1" source="4iZOH7k5CTV7Lrkq2rq5-45" target="4iZOH7k5CTV7Lrkq2rq5-45" edge="1">
          <mxGeometry relative="1" as="geometry">
            <Array as="points">
              <mxPoint x="233" y="197" />
              <mxPoint x="197" y="197" />
            </Array>
          </mxGeometry>
        </mxCell>
        <mxCell id="4iZOH7k5CTV7Lrkq2rq5-51" value="&amp;nbsp;letter |&amp;nbsp; | digit&amp;nbsp;" style="edgeLabel;html=1;align=center;verticalAlign=middle;resizable=0;points=[];" parent="4iZOH7k5CTV7Lrkq2rq5-50" vertex="1" connectable="0">
          <mxGeometry x="0.0505" relative="1" as="geometry">
            <mxPoint x="4" as="offset" />
          </mxGeometry>
        </mxCell>
        <mxCell id="4iZOH7k5CTV7Lrkq2rq5-58" style="edgeStyle=orthogonalEdgeStyle;rounded=0;orthogonalLoop=1;jettySize=auto;html=1;entryX=0;entryY=0.5;entryDx=0;entryDy=0;" parent="1" source="4iZOH7k5CTV7Lrkq2rq5-53" target="4iZOH7k5CTV7Lrkq2rq5-57" edge="1">
          <mxGeometry relative="1" as="geometry" />
        </mxCell>
        <mxCell id="4iZOH7k5CTV7Lrkq2rq5-59" value="digit" style="edgeLabel;html=1;align=center;verticalAlign=middle;resizable=0;points=[];" parent="4iZOH7k5CTV7Lrkq2rq5-58" vertex="1" connectable="0">
          <mxGeometry x="-0.0756" y="1" relative="1" as="geometry">
            <mxPoint x="-2" as="offset" />
          </mxGeometry>
        </mxCell>
        <mxCell id="4iZOH7k5CTV7Lrkq2rq5-53" value="NUMBER1" style="ellipse;whiteSpace=wrap;html=1;" parent="1" vertex="1">
          <mxGeometry x="60" y="300" width="85" height="50" as="geometry" />
        </mxCell>
        <mxCell id="4iZOH7k5CTV7Lrkq2rq5-64" style="edgeStyle=orthogonalEdgeStyle;rounded=0;orthogonalLoop=1;jettySize=auto;html=1;entryX=0.5;entryY=0;entryDx=0;entryDy=0;exitX=0.5;exitY=1;exitDx=0;exitDy=0;" parent="1" source="4iZOH7k5CTV7Lrkq2rq5-57" target="4iZOH7k5CTV7Lrkq2rq5-63" edge="1">
          <mxGeometry relative="1" as="geometry">
            <Array as="points">
              <mxPoint x="215" y="360" />
              <mxPoint x="100" y="360" />
            </Array>
          </mxGeometry>
        </mxCell>
        <mxCell id="4iZOH7k5CTV7Lrkq2rq5-65" value="&amp;nbsp;.&amp;nbsp;" style="edgeLabel;html=1;align=center;verticalAlign=middle;resizable=0;points=[];" parent="4iZOH7k5CTV7Lrkq2rq5-64" vertex="1" connectable="0">
          <mxGeometry x="0.3376" y="-2" relative="1" as="geometry">
            <mxPoint x="32" y="2" as="offset" />
          </mxGeometry>
        </mxCell>
        <mxCell id="4iZOH7k5CTV7Lrkq2rq5-73" style="edgeStyle=orthogonalEdgeStyle;rounded=0;orthogonalLoop=1;jettySize=auto;html=1;entryX=0.5;entryY=0;entryDx=0;entryDy=0;" parent="1" source="4iZOH7k5CTV7Lrkq2rq5-57" target="4iZOH7k5CTV7Lrkq2rq5-72" edge="1">
          <mxGeometry relative="1" as="geometry" />
        </mxCell>
        <mxCell id="4iZOH7k5CTV7Lrkq2rq5-75" value="&quot;&amp;nbsp; &quot;" style="edgeLabel;html=1;align=center;verticalAlign=middle;resizable=0;points=[];" parent="4iZOH7k5CTV7Lrkq2rq5-73" vertex="1" connectable="0">
          <mxGeometry x="-0.4369" y="-1" relative="1" as="geometry">
            <mxPoint as="offset" />
          </mxGeometry>
        </mxCell>
        <mxCell id="4iZOH7k5CTV7Lrkq2rq5-57" value="INT1" style="ellipse;whiteSpace=wrap;html=1;" parent="1" vertex="1">
          <mxGeometry x="187.5" y="300" width="55" height="50" as="geometry" />
        </mxCell>
        <mxCell id="4iZOH7k5CTV7Lrkq2rq5-60" style="edgeStyle=orthogonalEdgeStyle;rounded=0;orthogonalLoop=1;jettySize=auto;html=1;exitX=1;exitY=0;exitDx=0;exitDy=0;entryX=0;entryY=0;entryDx=0;entryDy=0;" parent="1" source="4iZOH7k5CTV7Lrkq2rq5-57" target="4iZOH7k5CTV7Lrkq2rq5-57" edge="1">
          <mxGeometry relative="1" as="geometry">
            <Array as="points">
              <mxPoint x="234" y="290" />
              <mxPoint x="196" y="290" />
            </Array>
          </mxGeometry>
        </mxCell>
        <mxCell id="4iZOH7k5CTV7Lrkq2rq5-61" value="digit" style="edgeLabel;html=1;align=center;verticalAlign=middle;resizable=0;points=[];" parent="4iZOH7k5CTV7Lrkq2rq5-60" vertex="1" connectable="0">
          <mxGeometry x="0.2071" relative="1" as="geometry">
            <mxPoint x="6" as="offset" />
          </mxGeometry>
        </mxCell>
        <mxCell id="4iZOH7k5CTV7Lrkq2rq5-67" style="edgeStyle=orthogonalEdgeStyle;rounded=0;orthogonalLoop=1;jettySize=auto;html=1;entryX=0;entryY=0.5;entryDx=0;entryDy=0;exitX=1;exitY=0.5;exitDx=0;exitDy=0;" parent="1" source="4iZOH7k5CTV7Lrkq2rq5-63" target="4iZOH7k5CTV7Lrkq2rq5-66" edge="1">
          <mxGeometry relative="1" as="geometry">
            <Array as="points">
              <mxPoint x="150" y="405" />
              <mxPoint x="150" y="405" />
            </Array>
          </mxGeometry>
        </mxCell>
        <mxCell id="4iZOH7k5CTV7Lrkq2rq5-68" value="digit" style="edgeLabel;html=1;align=center;verticalAlign=middle;resizable=0;points=[];" parent="4iZOH7k5CTV7Lrkq2rq5-67" vertex="1" connectable="0">
          <mxGeometry x="-0.4278" y="2" relative="1" as="geometry">
            <mxPoint x="4" as="offset" />
          </mxGeometry>
        </mxCell>
        <mxCell id="4iZOH7k5CTV7Lrkq2rq5-63" value="DECIMAL1" style="ellipse;whiteSpace=wrap;html=1;" parent="1" vertex="1">
          <mxGeometry x="60" y="380" width="80" height="50" as="geometry" />
        </mxCell>
        <mxCell id="4iZOH7k5CTV7Lrkq2rq5-74" style="edgeStyle=orthogonalEdgeStyle;rounded=0;orthogonalLoop=1;jettySize=auto;html=1;entryX=0;entryY=0.5;entryDx=0;entryDy=0;" parent="1" source="4iZOH7k5CTV7Lrkq2rq5-66" target="4iZOH7k5CTV7Lrkq2rq5-72" edge="1">
          <mxGeometry relative="1" as="geometry" />
        </mxCell>
        <mxCell id="4iZOH7k5CTV7Lrkq2rq5-76" value="&quot;&amp;nbsp; &quot;" style="edgeLabel;html=1;align=center;verticalAlign=middle;resizable=0;points=[];" parent="4iZOH7k5CTV7Lrkq2rq5-74" vertex="1" connectable="0">
          <mxGeometry x="0.3022" y="-2" relative="1" as="geometry">
            <mxPoint x="-3" y="-1" as="offset" />
          </mxGeometry>
        </mxCell>
        <mxCell id="4iZOH7k5CTV7Lrkq2rq5-66" value="DECIMAL1REM" style="ellipse;whiteSpace=wrap;html=1;" parent="1" vertex="1">
          <mxGeometry x="180" y="380" width="92.5" height="50" as="geometry" />
        </mxCell>
        <mxCell id="4iZOH7k5CTV7Lrkq2rq5-100" style="edgeStyle=orthogonalEdgeStyle;rounded=0;orthogonalLoop=1;jettySize=auto;html=1;entryX=0.449;entryY=0.018;entryDx=0;entryDy=0;entryPerimeter=0;" parent="1" source="4iZOH7k5CTV7Lrkq2rq5-72" target="4iZOH7k5CTV7Lrkq2rq5-83" edge="1">
          <mxGeometry relative="1" as="geometry">
            <Array as="points">
              <mxPoint x="348" y="440" />
              <mxPoint x="100" y="440" />
              <mxPoint x="100" y="471" />
            </Array>
          </mxGeometry>
        </mxCell>
        <mxCell id="4iZOH7k5CTV7Lrkq2rq5-101" value="&amp;nbsp;+ | - |&amp;nbsp;λ" style="edgeLabel;html=1;align=center;verticalAlign=middle;resizable=0;points=[];" parent="4iZOH7k5CTV7Lrkq2rq5-100" vertex="1" connectable="0">
          <mxGeometry x="-0.1786" y="1" relative="1" as="geometry">
            <mxPoint as="offset" />
          </mxGeometry>
        </mxCell>
        <mxCell id="4iZOH7k5CTV7Lrkq2rq5-72" value="SPACENUM" style="ellipse;whiteSpace=wrap;html=1;" parent="1" vertex="1">
          <mxGeometry x="305" y="381" width="85" height="48" as="geometry" />
        </mxCell>
        <mxCell id="4iZOH7k5CTV7Lrkq2rq5-77" style="edgeStyle=orthogonalEdgeStyle;rounded=0;orthogonalLoop=1;jettySize=auto;html=1;exitX=1;exitY=0;exitDx=0;exitDy=0;entryX=0;entryY=0;entryDx=0;entryDy=0;" parent="1" source="4iZOH7k5CTV7Lrkq2rq5-66" target="4iZOH7k5CTV7Lrkq2rq5-66" edge="1">
          <mxGeometry relative="1" as="geometry">
            <Array as="points">
              <mxPoint x="259" y="370" />
              <mxPoint x="193" y="370" />
            </Array>
          </mxGeometry>
        </mxCell>
        <mxCell id="4iZOH7k5CTV7Lrkq2rq5-78" value="digit" style="edgeLabel;html=1;align=center;verticalAlign=middle;resizable=0;points=[];" parent="4iZOH7k5CTV7Lrkq2rq5-77" vertex="1" connectable="0">
          <mxGeometry x="-0.2502" relative="1" as="geometry">
            <mxPoint x="-12" as="offset" />
          </mxGeometry>
        </mxCell>
        <mxCell id="4iZOH7k5CTV7Lrkq2rq5-81" style="edgeStyle=orthogonalEdgeStyle;rounded=0;orthogonalLoop=1;jettySize=auto;html=1;entryX=0;entryY=0.5;entryDx=0;entryDy=0;" parent="1" source="4iZOH7k5CTV7Lrkq2rq5-83" target="4iZOH7k5CTV7Lrkq2rq5-88" edge="1">
          <mxGeometry relative="1" as="geometry" />
        </mxCell>
        <mxCell id="4iZOH7k5CTV7Lrkq2rq5-82" value="digit" style="edgeLabel;html=1;align=center;verticalAlign=middle;resizable=0;points=[];" parent="4iZOH7k5CTV7Lrkq2rq5-81" vertex="1" connectable="0">
          <mxGeometry x="-0.0756" y="1" relative="1" as="geometry">
            <mxPoint x="-2" as="offset" />
          </mxGeometry>
        </mxCell>
        <mxCell id="4iZOH7k5CTV7Lrkq2rq5-83" value="NUMBER2" style="ellipse;whiteSpace=wrap;html=1;" parent="1" vertex="1">
          <mxGeometry x="61.25" y="470" width="85" height="50" as="geometry" />
        </mxCell>
        <mxCell id="4iZOH7k5CTV7Lrkq2rq5-84" style="edgeStyle=orthogonalEdgeStyle;rounded=0;orthogonalLoop=1;jettySize=auto;html=1;entryX=0.5;entryY=0;entryDx=0;entryDy=0;exitX=0.5;exitY=1;exitDx=0;exitDy=0;" parent="1" source="4iZOH7k5CTV7Lrkq2rq5-88" target="4iZOH7k5CTV7Lrkq2rq5-93" edge="1">
          <mxGeometry relative="1" as="geometry">
            <Array as="points">
              <mxPoint x="216.25" y="530" />
              <mxPoint x="101.25" y="530" />
            </Array>
          </mxGeometry>
        </mxCell>
        <mxCell id="4iZOH7k5CTV7Lrkq2rq5-85" value="&amp;nbsp;.&amp;nbsp;" style="edgeLabel;html=1;align=center;verticalAlign=middle;resizable=0;points=[];" parent="4iZOH7k5CTV7Lrkq2rq5-84" vertex="1" connectable="0">
          <mxGeometry x="0.3376" y="-2" relative="1" as="geometry">
            <mxPoint x="32" y="2" as="offset" />
          </mxGeometry>
        </mxCell>
        <mxCell id="4iZOH7k5CTV7Lrkq2rq5-86" style="edgeStyle=orthogonalEdgeStyle;rounded=0;orthogonalLoop=1;jettySize=auto;html=1;entryX=0.5;entryY=0;entryDx=0;entryDy=0;" parent="1" source="4iZOH7k5CTV7Lrkq2rq5-88" target="4iZOH7k5CTV7Lrkq2rq5-97" edge="1">
          <mxGeometry relative="1" as="geometry" />
        </mxCell>
        <mxCell id="4iZOH7k5CTV7Lrkq2rq5-87" value="&amp;nbsp;;&amp;nbsp;" style="edgeLabel;html=1;align=center;verticalAlign=middle;resizable=0;points=[];" parent="4iZOH7k5CTV7Lrkq2rq5-86" vertex="1" connectable="0">
          <mxGeometry x="-0.4369" y="-1" relative="1" as="geometry">
            <mxPoint as="offset" />
          </mxGeometry>
        </mxCell>
        <mxCell id="4iZOH7k5CTV7Lrkq2rq5-88" value="INT2" style="ellipse;whiteSpace=wrap;html=1;" parent="1" vertex="1">
          <mxGeometry x="188.75" y="470" width="55" height="50" as="geometry" />
        </mxCell>
        <mxCell id="4iZOH7k5CTV7Lrkq2rq5-89" style="edgeStyle=orthogonalEdgeStyle;rounded=0;orthogonalLoop=1;jettySize=auto;html=1;exitX=1;exitY=0;exitDx=0;exitDy=0;entryX=0;entryY=0;entryDx=0;entryDy=0;" parent="1" source="4iZOH7k5CTV7Lrkq2rq5-88" target="4iZOH7k5CTV7Lrkq2rq5-88" edge="1">
          <mxGeometry relative="1" as="geometry">
            <Array as="points">
              <mxPoint x="235.25" y="460" />
              <mxPoint x="197.25" y="460" />
            </Array>
          </mxGeometry>
        </mxCell>
        <mxCell id="4iZOH7k5CTV7Lrkq2rq5-90" value="digit" style="edgeLabel;html=1;align=center;verticalAlign=middle;resizable=0;points=[];" parent="4iZOH7k5CTV7Lrkq2rq5-89" vertex="1" connectable="0">
          <mxGeometry x="0.2071" relative="1" as="geometry">
            <mxPoint x="6" as="offset" />
          </mxGeometry>
        </mxCell>
        <mxCell id="4iZOH7k5CTV7Lrkq2rq5-91" style="edgeStyle=orthogonalEdgeStyle;rounded=0;orthogonalLoop=1;jettySize=auto;html=1;entryX=0;entryY=0.5;entryDx=0;entryDy=0;exitX=1;exitY=0.5;exitDx=0;exitDy=0;" parent="1" source="4iZOH7k5CTV7Lrkq2rq5-93" target="4iZOH7k5CTV7Lrkq2rq5-96" edge="1">
          <mxGeometry relative="1" as="geometry">
            <Array as="points">
              <mxPoint x="151.25" y="575" />
              <mxPoint x="151.25" y="575" />
            </Array>
          </mxGeometry>
        </mxCell>
        <mxCell id="4iZOH7k5CTV7Lrkq2rq5-92" value="digit" style="edgeLabel;html=1;align=center;verticalAlign=middle;resizable=0;points=[];" parent="4iZOH7k5CTV7Lrkq2rq5-91" vertex="1" connectable="0">
          <mxGeometry x="-0.4278" y="2" relative="1" as="geometry">
            <mxPoint x="4" y="1" as="offset" />
          </mxGeometry>
        </mxCell>
        <mxCell id="4iZOH7k5CTV7Lrkq2rq5-93" value="DECIMAL2" style="ellipse;whiteSpace=wrap;html=1;" parent="1" vertex="1">
          <mxGeometry x="61.25" y="550" width="80" height="50" as="geometry" />
        </mxCell>
        <mxCell id="4iZOH7k5CTV7Lrkq2rq5-94" style="edgeStyle=orthogonalEdgeStyle;rounded=0;orthogonalLoop=1;jettySize=auto;html=1;entryX=0;entryY=0.5;entryDx=0;entryDy=0;" parent="1" source="4iZOH7k5CTV7Lrkq2rq5-96" target="4iZOH7k5CTV7Lrkq2rq5-97" edge="1">
          <mxGeometry relative="1" as="geometry" />
        </mxCell>
        <mxCell id="4iZOH7k5CTV7Lrkq2rq5-95" value="&amp;nbsp;;&amp;nbsp;" style="edgeLabel;html=1;align=center;verticalAlign=middle;resizable=0;points=[];" parent="4iZOH7k5CTV7Lrkq2rq5-94" vertex="1" connectable="0">
          <mxGeometry x="0.3022" y="-2" relative="1" as="geometry">
            <mxPoint x="-3" y="-1" as="offset" />
          </mxGeometry>
        </mxCell>
        <mxCell id="4iZOH7k5CTV7Lrkq2rq5-96" value="DECIMAL2REM" style="ellipse;whiteSpace=wrap;html=1;" parent="1" vertex="1">
          <mxGeometry x="181.25" y="550" width="92.5" height="50" as="geometry" />
        </mxCell>
        <mxCell id="4iZOH7k5CTV7Lrkq2rq5-97" value="END" style="ellipse;whiteSpace=wrap;html=1;" parent="1" vertex="1">
          <mxGeometry x="306.25" y="551" width="85" height="48" as="geometry" />
        </mxCell>
        <mxCell id="4iZOH7k5CTV7Lrkq2rq5-98" style="edgeStyle=orthogonalEdgeStyle;rounded=0;orthogonalLoop=1;jettySize=auto;html=1;exitX=1;exitY=0;exitDx=0;exitDy=0;entryX=0;entryY=0;entryDx=0;entryDy=0;" parent="1" source="4iZOH7k5CTV7Lrkq2rq5-96" target="4iZOH7k5CTV7Lrkq2rq5-96" edge="1">
          <mxGeometry relative="1" as="geometry">
            <Array as="points">
              <mxPoint x="260.25" y="540" />
              <mxPoint x="194.25" y="540" />
            </Array>
          </mxGeometry>
        </mxCell>
        <mxCell id="4iZOH7k5CTV7Lrkq2rq5-99" value="digit" style="edgeLabel;html=1;align=center;verticalAlign=middle;resizable=0;points=[];" parent="4iZOH7k5CTV7Lrkq2rq5-98" vertex="1" connectable="0">
          <mxGeometry x="-0.2502" relative="1" as="geometry">
            <mxPoint x="-12" as="offset" />
          </mxGeometry>
        </mxCell>
        <mxCell id="kmrlaVPqieBrhJCYA01D-1" value="END" style="ellipse;whiteSpace=wrap;html=1;" vertex="1" parent="1">
          <mxGeometry x="320.13" y="561.5" width="58.75" height="29" as="geometry" />
        </mxCell>
      </root>
    </mxGraphModel>
  </diagram>
</mxfile>
